<?xml version="1.0" standalone="no"?>
<!DOCTYPE svg PUBLIC "-//W3C//DTD SVG 20010904//EN"
 "http://www.w3.org/TR/2001/REC-SVG-20010904/DTD/svg10.dtd">
<svg version="1.0" xmlns="http://www.w3.org/2000/svg"
 width="1012.000000pt" height="235.000000pt" viewBox="0 0 1012.000000 235.000000"
 preserveAspectRatio="xMidYMid meet">

<g transform="translate(0.000000,235.000000) scale(0.100000,-0.100000)"
fill="#000000" stroke="none">
<path d="M620 1768 l0 -583 -303 -135 -302 -136 -3 -43 c-3 -33 0 -42 10 -39
7 3 140 62 295 132 154 69 286 126 292 126 8 0 11 -111 11 -380 l0 -380 760 0
760 0 0 35 0 35 -722 2 -723 3 0 364 0 365 430 193 c237 106 435 193 440 193
6 0 205 -88 443 -196 l432 -196 0 -524 0 -524 -915 0 -915 0 0 -35 0 -35 957
0 956 0 -6 540 c-3 297 -3 540 0 540 3 0 121 -52 262 -116 141 -64 275 -125
299 -135 l42 -18 0 42 0 42 -305 139 -305 138 0 424 0 424 -35 0 -35 0 0 -405
c0 -223 -3 -405 -6 -405 -4 0 -200 88 -437 195 l-430 196 -426 -192 c-234
-105 -432 -193 -438 -196 -10 -4 -13 104 -13 521 l0 526 916 0 915 0 -3 38 -3
37 -947 3 -948 2 0 -582z"/>
<path d="M3390 1450 l0 -330 203 2 c194 3 202 4 202 23 0 19 -8 20 -177 23
l-178 2 0 130 0 130 165 0 165 0 0 25 0 25 -165 0 -165 0 0 125 0 125 175 0
175 0 0 25 0 25 -200 0 -200 0 0 -330z"/>
<path d="M4020 1450 l0 -333 133 6 c160 6 219 23 287 84 70 63 94 124 95 243
0 118 -24 179 -96 244 -70 63 -119 77 -281 83 l-138 6 0 -333z m287 265 c71
-21 126 -65 154 -122 20 -40 24 -63 24 -143 0 -86 -3 -100 -29 -147 -53 -95
-137 -133 -298 -133 l-98 0 0 280 0 280 98 0 c58 0 119 -6 149 -15z"/>
<path d="M4760 1450 l0 -331 23 3 22 3 0 325 0 325 -22 3 -23 3 0 -331z"/>
<path d="M5340 1450 c0 -322 0 -330 20 -330 18 0 20 8 22 153 l3 152 168 3
167 2 0 25 0 25 -170 0 -170 0 0 125 0 125 180 0 180 0 0 25 0 25 -200 0 -200
0 0 -330z"/>
<path d="M5960 1450 l0 -330 200 0 200 0 0 25 0 25 -175 0 -175 0 0 130 0 130
165 0 165 0 0 25 0 25 -165 0 -165 0 0 125 0 125 175 0 175 0 0 25 0 25 -200
0 -200 0 0 -330z"/>
<path d="M6585 1768 c-3 -7 -4 -155 -3 -328 l3 -315 23 -3 22 -3 0 305 0 306
118 0 c181 -1 235 -37 236 -157 1 -99 -59 -143 -191 -143 -82 0 -83 0 -83 -25
0 -24 3 -25 58 -25 l57 0 98 -130 c90 -120 118 -145 140 -124 3 3 -37 62 -88
132 l-93 126 47 22 c56 25 86 64 100 125 20 93 -17 179 -94 219 -45 23 -62 25
-197 29 -118 2 -149 0 -153 -11z"/>
<path d="M7285 1767 c-3 -7 -4 -154 -3 -327 l3 -315 23 -3 22 -3 0 305 0 306
118 0 c178 -1 235 -37 236 -151 0 -101 -61 -149 -191 -149 -82 0 -83 0 -83
-25 0 -24 3 -25 58 -25 l57 0 98 -130 c68 -91 103 -130 117 -130 11 0 20 6 20
13 0 6 -41 66 -90 131 l-90 119 49 22 c70 33 95 73 99 162 3 59 0 78 -17 110
-27 47 -72 79 -131 92 -67 16 -289 14 -295 -2z"/>
<path d="M7972 1453 l3 -328 200 0 c193 0 200 1 200 20 0 19 -8 20 -177 23
l-178 2 0 130 0 130 168 2 c159 3 167 4 167 23 0 19 -8 20 -167 23 l-168 2 0
125 0 125 175 0 175 0 0 25 0 25 -200 0 -200 0 2 -327z"/>
<path d="M8600 1450 c0 -323 0 -330 20 -330 20 0 20 7 20 330 0 323 0 330 -20
330 -20 0 -20 -7 -20 -330z"/>
<path d="M8895 1768 c-3 -7 -4 -155 -3 -328 l3 -315 23 -3 22 -3 0 305 0 306
118 0 c94 0 125 -4 160 -20 101 -46 106 -208 9 -262 -12 -7 -62 -15 -112 -18
-84 -5 -90 -7 -93 -27 -3 -22 0 -23 56 -23 l60 0 95 -130 c90 -121 118 -146
140 -124 3 3 -36 63 -87 132 l-93 126 47 22 c81 38 121 122 100 216 -14 67
-40 101 -98 129 -41 21 -65 24 -194 27 -118 3 -149 1 -153 -10z"/>
<path d="M9791 1758 c-5 -13 -63 -157 -130 -320 -66 -163 -121 -302 -121 -308
0 -6 10 -10 21 -8 16 2 30 24 59 93 l37 90 165 3 166 2 38 -95 c32 -82 41 -95
61 -95 13 0 23 4 23 10 0 18 -47 135 -154 383 -58 136 -106 251 -106 257 0 5
-11 10 -25 10 -17 0 -28 -7 -34 -22z m104 -222 c36 -87 65 -162 65 -167 0 -5
-63 -9 -141 -9 -109 0 -140 3 -136 13 123 302 136 332 143 325 2 -3 33 -76 69
-162z"/>
<path d="M3760 705 l0 -95 39 0 c57 0 100 19 116 51 39 74 -12 139 -110 139
l-45 0 0 -95z m108 49 c32 -22 30 -78 -2 -100 -14 -8 -35 -14 -48 -12 -20 3
-23 10 -26 52 -2 27 -1 55 2 62 7 19 46 18 74 -2z"/>
<path d="M4090 705 l0 -95 65 0 c51 0 65 3 65 15 0 11 -12 15 -50 15 -47 0
-50 2 -50 25 0 23 4 25 45 25 33 0 45 4 45 15 0 11 -12 15 -45 15 -41 0 -45 2
-45 25 0 23 3 25 50 25 38 0 50 4 50 15 0 12 -14 15 -65 15 l-65 0 0 -95z"/>
<path d="M4398 789 c-11 -6 -18 -22 -18 -40 0 -24 6 -32 38 -45 61 -27 67 -31
67 -45 0 -19 -42 -24 -71 -9 -35 19 -52 8 -26 -18 44 -44 132 -20 132 35 0 26
-16 39 -66 55 -22 8 -39 19 -39 28 0 18 43 26 58 11 16 -16 37 -14 37 4 0 30
-74 46 -112 24z"/>
<path d="M4680 705 c0 -78 3 -95 15 -95 12 0 15 17 15 95 0 78 -3 95 -15 95
-12 0 -15 -17 -15 -95z"/>
<path d="M4917 789 c-11 -6 -25 -27 -33 -46 -31 -72 25 -142 103 -130 48 8 63
24 63 63 0 33 -1 34 -40 34 -29 0 -40 -4 -40 -15 0 -9 9 -15 25 -15 27 0 32
-9 13 -28 -18 -18 -63 -14 -81 6 -22 25 -21 75 1 95 23 21 60 22 81 3 12 -11
21 -12 31 -5 13 8 11 13 -9 29 -26 22 -84 26 -114 9z"/>
<path d="M5220 705 c0 -76 3 -95 15 -95 10 0 15 16 17 61 l3 61 43 -61 c61
-88 72 -83 72 34 0 78 -3 95 -15 95 -12 0 -15 -13 -15 -60 0 -33 -3 -60 -7
-60 -5 0 -25 27 -47 60 -55 86 -66 81 -66 -35z"/>
<path d="M5530 705 l0 -95 70 0 c56 0 70 3 70 15 0 11 -12 15 -50 15 -47 0
-50 2 -50 25 0 23 4 25 45 25 33 0 45 4 45 15 0 11 -12 15 -45 15 -41 0 -45 2
-45 25 0 23 3 25 50 25 38 0 50 4 50 15 0 12 -14 15 -70 15 l-70 0 0 -95z"/>
<path d="M5830 705 c0 -78 3 -95 15 -95 10 0 15 11 15 35 0 28 4 35 19 35 11
0 28 -15 41 -35 12 -19 28 -35 36 -35 18 0 18 4 -2 41 -14 28 -14 32 0 48 22
24 20 57 -4 81 -15 15 -33 20 -70 20 l-50 0 0 -95z m99 51 c19 -23 2 -46 -35
-46 -31 0 -34 3 -34 30 0 26 3 30 29 30 16 0 34 -6 40 -14z"/>
<path d="M6280 705 l0 -95 39 0 c94 0 145 53 121 126 -14 42 -53 64 -115 64
l-45 0 0 -95z m108 49 c32 -22 30 -78 -2 -100 -14 -8 -35 -14 -48 -12 -21 3
-23 9 -26 66 l-3 62 28 0 c16 0 39 -7 51 -16z"/>
<path d="M6600 705 l0 -95 70 0 c56 0 70 3 70 15 0 11 -12 15 -50 15 -47 0
-50 2 -50 25 0 23 4 25 45 25 33 0 45 4 45 15 0 11 -12 15 -45 15 -41 0 -45 2
-45 25 0 23 3 25 50 25 38 0 50 4 50 15 0 12 -14 15 -70 15 l-70 0 0 -95z"/>
<path d="M7050 705 c0 -78 3 -95 15 -95 12 0 15 17 15 95 0 78 -3 95 -15 95
-12 0 -15 -17 -15 -95z"/>
<path d="M7250 705 c0 -76 3 -95 15 -95 10 0 15 16 17 63 l3 62 43 -62 c61
-90 72 -85 72 32 0 76 -3 95 -15 95 -10 0 -15 -16 -17 -62 l-3 -63 -44 63
c-62 87 -71 83 -71 -33z"/>
<path d="M7560 785 c0 -9 9 -15 25 -15 25 0 25 -1 25 -80 0 -63 3 -80 15 -80
11 0 15 18 17 78 3 76 3 77 31 80 15 2 27 9 27 18 0 11 -16 14 -70 14 -56 0
-70 -3 -70 -15z"/>
<path d="M7860 705 l0 -95 65 0 c51 0 65 3 65 15 0 11 -12 15 -50 15 -47 0
-50 2 -50 25 0 23 4 25 45 25 33 0 45 4 45 15 0 11 -12 15 -45 15 -41 0 -45 2
-45 25 0 23 3 25 50 25 38 0 50 4 50 15 0 12 -14 15 -65 15 l-65 0 0 -95z"/>
<path d="M8150 705 c0 -76 3 -95 14 -95 9 0 16 12 18 32 4 47 31 48 60 4 13
-20 31 -36 41 -36 18 0 18 2 -2 36 -19 31 -19 37 -6 50 21 21 19 67 -3 87 -12
11 -36 17 -70 17 l-52 0 0 -95z m105 35 c0 -22 -5 -25 -37 -28 -36 -3 -38 -2
-38 28 0 30 2 31 38 28 32 -3 37 -6 37 -28z"/>
<path d="M8460 705 c0 -78 3 -95 15 -95 12 0 15 17 15 95 0 78 -3 95 -15 95
-12 0 -15 -17 -15 -95z"/>
<path d="M8695 788 c-32 -19 -44 -41 -45 -81 0 -83 95 -127 157 -73 23 20 28
32 28 71 0 39 -5 51 -28 71 -31 26 -78 31 -112 12z m89 -33 c26 -27 29 -56 9
-84 -54 -71 -149 4 -97 77 18 26 65 30 88 7z"/>
<path d="M9000 705 c0 -78 3 -95 15 -95 10 0 15 11 15 35 0 28 4 35 19 35 11
0 28 -15 40 -35 11 -19 27 -35 36 -35 19 0 19 5 -2 36 -15 24 -15 27 1 54 19
34 13 76 -14 90 -10 6 -39 10 -64 10 l-46 0 0 -95z m95 35 c0 -21 -5 -26 -32
-28 -31 -3 -33 -1 -33 28 0 29 2 31 33 28 27 -2 32 -7 32 -28z"/>
<path d="M9300 705 l0 -95 65 0 c51 0 65 3 65 15 0 11 -12 15 -50 15 -47 0
-50 2 -50 25 0 23 4 25 45 25 33 0 45 4 45 15 0 11 -12 15 -45 15 -41 0 -45 2
-45 25 0 23 3 25 50 25 38 0 50 4 50 15 0 12 -14 15 -65 15 l-65 0 0 -95z"/>
<path d="M9605 780 c-30 -33 -13 -66 45 -85 50 -17 65 -40 34 -52 -9 -3 -32 0
-51 6 -43 16 -56 5 -24 -20 31 -25 85 -25 111 1 36 36 23 63 -42 88 -44 16
-48 20 -48 42 0 14 46 13 70 -2 27 -17 37 -2 15 22 -24 27 -86 27 -110 0z"/>
</g>
</svg>
