<?xml version="1.0" standalone="no"?>
<!DOCTYPE svg PUBLIC "-//W3C//DTD SVG 20010904//EN"
 "http://www.w3.org/TR/2001/REC-SVG-20010904/DTD/svg10.dtd">
<svg version="1.0" xmlns="http://www.w3.org/2000/svg"
 width="392.000000pt" height="295.000000pt" viewBox="0 0 392.000000 295.000000"
 preserveAspectRatio="xMidYMid meet">

<g transform="translate(0.000000,295.000000) scale(0.100000,-0.100000)"
fill="#000000" stroke="none">
<path d="M770 2217 l0 -733 -382 -171 -383 -172 -3 -55 c-2 -31 -1 -56 1 -56
3 0 170 75 373 166 203 91 375 168 382 171 9 4 12 -95 12 -476 l0 -481 960 0
960 0 0 45 0 45 -910 0 -910 0 0 458 0 459 28 12 c60 28 990 445 1028 461 l41
18 544 -247 544 -247 3 -657 2 -657 -1150 0 -1151 0 3 -48 3 -47 1198 -3 1197
-2 0 680 c0 374 3 680 8 680 4 0 174 -76 377 -168 l370 -168 3 55 c2 31 0 57
-5 58 -4 2 -174 79 -378 171 l-370 168 -3 532 -2 532 -50 0 -50 0 0 -505 c0
-278 -3 -505 -6 -505 -4 0 -250 111 -547 246 l-541 245 -540 -242 c-298 -133
-544 -244 -548 -246 -5 -2 -8 293 -8 656 l0 661 1145 0 1145 0 0 50 0 50
-1195 0 -1195 0 0 -733z"/>
</g>
</svg>
