<?xml version="1.0" standalone="no"?>
<!DOCTYPE svg PUBLIC "-//W3C//DTD SVG 20010904//EN"
 "http://www.w3.org/TR/2001/REC-SVG-20010904/DTD/svg10.dtd">
<svg version="1.0" xmlns="http://www.w3.org/2000/svg"
 width="1083.000000pt" height="227.000000pt" viewBox="0 0 1083.000000 227.000000"
 preserveAspectRatio="xMidYMid meet">

<g transform="translate(0.000000,227.000000) scale(0.100000,-0.100000)"
fill="#000000" stroke="none">
<path d="M598 1698 l-3 -561 -285 -129 c-157 -70 -289 -129 -293 -131 -5 -1
-7 -21 -5 -43 l3 -41 285 128 c157 71 288 129 293 129 4 0 7 -166 7 -370 l0
-370 735 0 735 0 0 35 0 35 -697 2 -698 3 -3 351 -2 351 27 12 c214 99 811
364 819 364 7 0 199 -85 428 -189 l416 -189 0 -502 0 -503 -880 0 -880 0 0
-40 0 -40 918 2 917 3 -4 524 c-3 447 -2 523 10 519 8 -3 139 -63 291 -132
153 -69 280 -126 283 -126 3 0 5 18 3 41 l-3 40 -280 127 c-154 70 -286 131
-292 135 -10 6 -13 100 -13 413 l0 404 -35 0 -35 0 0 -391 c0 -309 -3 -390
-12 -386 -7 3 -197 89 -422 191 l-408 186 -372 -166 c-204 -92 -395 -177 -423
-190 l-53 -24 0 510 0 510 885 0 885 0 0 35 0 35 -920 0 -920 0 -2 -562z"/>
<path d="M3390 1420 l0 -360 220 0 220 0 0 25 0 25 -195 0 -195 0 0 145 0 145
185 0 185 0 0 25 0 25 -185 0 -185 0 0 140 0 140 195 0 195 0 0 25 0 25 -220
0 -220 0 0 -360z"/>
<path d="M4080 1421 l0 -361 133 0 c156 0 229 15 303 64 104 69 159 215 135
359 -16 96 -41 148 -96 201 -74 73 -131 89 -317 94 l-158 4 0 -361z m358 280
c105 -47 162 -146 162 -281 0 -135 -51 -225 -157 -277 -51 -25 -70 -28 -185
-31 l-128 -4 0 312 0 312 128 -4 c106 -3 136 -8 180 -27z"/>
<path d="M4900 1420 l0 -360 25 0 25 0 0 360 0 360 -25 0 -25 0 0 -360z"/>
<path d="M5540 1420 l0 -360 25 0 25 0 0 170 0 170 188 2 c179 3 187 4 187 23
0 19 -8 20 -187 23 l-188 2 0 140 0 140 195 0 195 0 0 25 0 25 -220 0 -220 0
0 -360z"/>
<path d="M6230 1420 l0 -360 220 0 220 0 0 25 0 25 -195 0 -195 0 0 145 0 145
185 0 185 0 0 25 0 25 -185 0 -185 0 0 140 0 140 195 0 195 0 0 25 0 25 -220
0 -220 0 0 -360z"/>
<path d="M6920 1421 l0 -361 25 0 25 0 0 335 0 335 121 0 c143 0 186 -11 231
-57 29 -30 33 -41 36 -101 3 -57 0 -72 -20 -101 -35 -52 -85 -73 -189 -79 -85
-5 -89 -6 -89 -28 0 -23 3 -24 64 -24 l65 0 103 -140 c89 -121 106 -140 130
-140 16 0 28 3 28 8 0 4 -45 67 -100 141 -55 74 -98 136 -96 138 1 2 27 16 57
31 75 38 104 90 103 187 -1 98 -29 146 -114 191 -29 16 -63 19 -207 22 l-173
4 0 -361z"/>
<path d="M7690 1420 l0 -360 25 0 25 0 0 335 0 335 133 0 c108 0 140 -4 174
-20 101 -45 122 -195 39 -268 -39 -34 -107 -52 -196 -52 -57 0 -60 -1 -60 -25
0 -24 2 -25 68 -26 l67 0 102 -140 c93 -126 105 -139 133 -139 16 0 30 1 30 3
0 2 -47 66 -104 142 l-104 140 31 13 c88 38 136 107 137 197 0 73 -16 117 -56
158 -56 56 -103 67 -286 67 l-158 0 0 -360z"/>
<path d="M8450 1420 l0 -360 225 0 225 0 0 25 0 25 -195 0 -195 0 0 145 0 145
185 0 185 0 0 25 0 25 -185 0 -185 0 0 140 0 140 193 2 c191 3 192 3 195 26
l3 22 -225 0 -226 0 0 -360z"/>
<path d="M9147 1774 c-4 -4 -7 -166 -7 -361 l0 -353 30 0 30 0 -2 358 c-3 351
-3 357 -23 360 -12 2 -24 0 -28 -4z"/>
<path d="M9472 1423 l3 -358 28 -3 27 -3 0 335 0 336 128 0 c113 0 133 -3 172
-22 24 -13 53 -35 63 -50 30 -40 33 -115 9 -171 -28 -64 -78 -88 -194 -95 -84
-5 -88 -6 -88 -28 0 -23 3 -24 63 -24 l63 0 103 -140 c91 -125 105 -140 132
-140 16 0 29 2 29 5 0 3 -45 65 -100 139 -55 74 -100 137 -100 140 0 3 17 13
38 21 84 36 122 97 122 198 0 86 -29 142 -94 182 -49 30 -49 30 -228 33 l-178
4 2 -359z"/>
<path d="M10432 1678 c-22 -57 -88 -219 -146 -360 l-105 -258 28 0 c25 0 30 8
67 98 l40 97 185 3 185 2 39 -97 c36 -88 43 -98 68 -101 26 -3 27 -1 21 25 -7
27 -66 171 -214 521 -69 161 -75 172 -100 172 -24 0 -30 -8 -68 -102z m148
-160 c41 -100 77 -185 78 -190 2 -4 -68 -8 -156 -8 l-160 0 76 190 c43 104 79
190 82 190 3 0 39 -82 80 -182z"/>
<path d="M3730 600 l0 -110 66 0 c59 0 68 3 95 29 23 24 29 38 29 73 0 76 -52
118 -145 118 l-45 0 0 -110z m134 38 c36 -51 4 -108 -59 -108 l-35 0 0 65 0
65 39 0 c30 0 44 -6 55 -22z"/>
<path d="M4097 703 c-4 -3 -7 -53 -7 -110 l0 -103 80 0 c73 0 80 2 80 20 0 18
-7 20 -55 20 -52 0 -55 1 -55 25 0 23 3 25 50 25 43 0 50 3 50 20 0 17 -7 20
-50 20 -43 0 -50 3 -50 20 0 18 7 20 55 20 52 0 55 1 55 25 0 24 -2 25 -73 25
-41 0 -77 -3 -80 -7z"/>
<path d="M4446 687 c-44 -45 -27 -82 50 -107 28 -10 49 -23 49 -31 0 -17 -63
-25 -78 -10 -6 6 -19 11 -30 11 -32 0 -15 -33 26 -54 34 -16 44 -17 78 -7 68
20 74 83 11 114 -15 8 -39 17 -54 21 -16 3 -28 13 -28 21 0 22 38 28 66 10 16
-10 30 -13 40 -7 26 15 -14 52 -63 59 -35 5 -45 2 -67 -20z"/>
<path d="M4770 600 c0 -103 1 -110 20 -110 19 0 20 7 20 110 0 103 -1 110 -20
110 -19 0 -20 -7 -20 -110z"/>
<path d="M5042 695 c-65 -29 -79 -126 -24 -177 69 -65 172 -34 172 52 l0 40
-50 0 c-43 0 -50 -3 -50 -20 0 -16 7 -20 30 -20 19 0 30 -5 30 -14 0 -31 -78
-36 -104 -7 -25 28 -17 79 16 104 24 18 30 18 57 7 17 -7 31 -17 31 -22 0 -5
9 -4 20 2 26 14 25 26 -4 45 -35 23 -86 27 -124 10z"/>
<path d="M5370 600 c0 -102 1 -110 20 -110 17 0 19 8 22 66 l3 67 45 -67 c33
-49 51 -66 67 -66 22 0 23 2 23 111 0 109 0 110 -22 107 -20 -3 -24 -10 -28
-65 l-5 -61 -44 64 c-27 39 -51 64 -63 64 -16 0 -18 -10 -18 -110z"/>
<path d="M5730 600 l0 -110 80 0 c73 0 80 2 80 20 0 18 -7 20 -61 20 -57 0
-60 1 -57 23 3 19 10 22 51 25 39 3 47 6 47 23 0 16 -7 19 -50 19 -43 0 -50 3
-50 20 0 18 7 20 55 20 52 0 55 1 55 25 0 24 -2 25 -75 25 l-75 0 0 -110z"/>
<path d="M6060 600 c0 -103 1 -110 20 -110 16 0 20 7 20 35 0 30 3 35 23 35
15 0 28 -11 41 -35 14 -25 26 -35 43 -35 28 0 28 0 3 44 -15 23 -17 36 -10 41
21 13 32 57 20 86 -14 34 -48 49 -110 49 l-50 0 0 -110z m118 36 c5 -23 -14
-36 -50 -36 -25 0 -28 4 -28 31 0 29 2 30 37 27 28 -2 39 -8 41 -22z"/>
<path d="M6570 599 l0 -111 71 4 c63 3 74 7 95 31 29 34 32 100 8 136 -22 31
-73 51 -129 51 l-45 0 0 -111z m134 39 c36 -51 4 -108 -59 -108 l-35 0 0 65 0
65 39 0 c30 0 44 -6 55 -22z"/>
<path d="M6937 703 c-4 -3 -7 -53 -7 -110 l0 -103 80 0 c73 0 80 2 80 20 0 18
-7 20 -55 20 -52 0 -55 1 -55 25 0 23 3 25 50 25 43 0 50 3 50 20 0 17 -7 20
-50 20 -43 0 -50 3 -50 20 0 18 7 20 55 20 52 0 55 1 55 25 0 24 -2 25 -73 25
-41 0 -77 -3 -80 -7z"/>
<path d="M7440 600 c0 -103 1 -110 20 -110 19 0 20 7 20 110 0 103 -1 110 -20
110 -19 0 -20 -7 -20 -110z"/>
<path d="M7660 600 c0 -102 1 -110 20 -110 17 0 19 8 22 66 l3 67 45 -67 c33
-49 51 -66 67 -66 22 0 23 2 23 111 0 109 0 110 -22 107 -20 -3 -24 -10 -28
-65 l-5 -61 -44 64 c-27 39 -51 64 -63 64 -16 0 -18 -10 -18 -110z"/>
<path d="M8010 685 c0 -21 5 -25 30 -25 l30 0 0 -85 c0 -78 2 -85 20 -85 18 0
20 7 20 84 l0 85 33 3 c24 2 33 8 35 26 3 21 1 22 -82 22 -85 0 -86 0 -86 -25z"/>
<path d="M8350 600 l0 -110 80 0 c73 0 80 2 80 20 0 18 -7 20 -61 20 -57 0
-60 1 -57 23 3 19 10 22 51 25 39 3 47 6 47 23 0 16 -7 19 -50 19 -43 0 -50 3
-50 20 0 18 7 20 55 20 52 0 55 1 55 25 0 24 -2 25 -75 25 l-75 0 0 -110z"/>
<path d="M8680 600 c0 -103 1 -110 20 -110 16 0 20 7 20 35 0 30 3 35 23 35
15 0 28 -11 41 -35 14 -25 26 -35 43 -35 28 0 28 0 3 44 -15 23 -17 36 -10 41
20 13 30 53 19 83 -12 36 -46 52 -109 52 l-50 0 0 -110z m116 45 c9 -23 -15
-45 -47 -45 -26 0 -29 4 -29 30 0 28 3 30 35 30 23 0 38 -6 41 -15z"/>
<path d="M9020 600 c0 -103 1 -110 20 -110 19 0 20 7 20 110 0 103 -1 110 -20
110 -19 0 -20 -7 -20 -110z"/>
<path d="M9304 700 c-58 -23 -84 -117 -48 -169 43 -61 147 -60 184 2 59 97
-32 209 -136 167z m71 -40 c14 -5 30 -22 35 -36 19 -50 -11 -94 -65 -94 -62 0
-86 70 -40 115 27 28 33 29 70 15z"/>
<path d="M9630 600 c0 -103 1 -110 20 -110 16 0 20 7 20 35 0 30 3 35 23 35
15 0 28 -11 41 -35 14 -25 26 -35 43 -35 28 0 28 4 3 46 -14 22 -17 35 -10 39
21 13 31 57 20 86 -14 34 -48 49 -110 49 l-50 0 0 -110z m118 33 c3 -17 -3
-24 -22 -29 -37 -9 -56 2 -56 31 0 24 3 26 38 23 29 -2 38 -7 40 -25z"/>
<path d="M9970 600 l0 -110 80 0 c73 0 80 2 80 20 0 18 -7 20 -61 20 -57 0
-60 1 -57 23 3 19 10 22 56 25 44 3 52 6 52 23 0 16 -7 19 -55 19 -48 0 -55 3
-55 20 0 16 8 19 58 22 50 3 57 6 60 26 3 21 1 22 -77 22 l-81 0 0 -110z"/>
<path d="M10326 689 c-48 -37 -26 -89 45 -110 46 -12 63 -25 55 -38 -9 -14
-61 -14 -85 1 -10 6 -27 8 -37 4 -16 -6 -16 -9 8 -33 54 -53 158 -28 158 38 0
32 -21 49 -82 69 -39 12 -50 33 -22 44 24 9 31 8 48 -10 19 -19 58 -10 49 12
-7 19 -56 44 -86 44 -13 0 -36 -9 -51 -21z"/>
</g>
</svg>
